<?xml version="1.0" encoding="UTF-8" standalone="no"?>
<svg width="489px" height="489px" viewBox="0 0 489 489" version="1.1" xmlns="http://www.w3.org/2000/svg" xmlns:xlink="http://www.w3.org/1999/xlink">
    <!-- Generator: Sketch 40.3 (33839) - http://www.bohemiancoding.com/sketch -->
    <title>dollar-symbol-1</title>
    <desc>Created with Sketch.</desc>
    <defs></defs>
    <g id="Page-1" stroke="none" stroke-width="1" fill="none" fill-rule="evenodd">
        <g id="dollar-symbol-1">
            <g id="Group">
                <circle id="XMLID_1909_" fill="#009FE3" cx="244.3" cy="444.2" r="35.3"></circle>
                <circle id="XMLID_1907_" fill="#009FE3" cx="244.3" cy="44.4" r="35.3"></circle>
                <circle id="XMLID_1905_" fill="#009FE3" cx="444.2" cy="244.3" r="35.3"></circle>
                <circle id="XMLID_1903_" fill="#009FE3" cx="44.4" cy="244.3" r="35.3"></circle>
                <path d="M244.3,346.8 C239.3,346.8 235.2,350.9 235.2,355.9 L235.2,400.7 C215.1,404.9 199.9,422.8 199.9,444.2 C199.9,468.7 219.8,488.6 244.3,488.6 C268.8,488.6 288.7,468.7 288.7,444.2 C288.7,422.8 273.5,404.9 253.4,400.7 L253.4,355.9 C253.4,350.9 249.3,346.8 244.3,346.8 L244.3,346.8 Z M270.6,444.2 C270.6,458.7 258.8,470.5 244.3,470.5 C229.8,470.5 218,458.7 218,444.2 C218,429.7 229.8,417.9 244.3,417.9 C258.8,417.9 270.6,429.7 270.6,444.2 L270.6,444.2 Z" id="Shape" fill="#000000"></path>
                <path d="M348.5,361.3 C343.8,368.5 341.2,376.8 341.2,385.6 C341.2,397.5 345.8,408.6 354.2,417 C362.6,425.4 373.7,430 385.6,430 C397.5,430 408.6,425.4 417,417 C425.4,408.6 430,397.5 430,385.6 C430,373.7 425.4,362.6 417,354.2 C408.6,345.8 397.5,341.2 385.6,341.2 C376.8,341.2 368.4,343.7 361.3,348.5 L329.6,316.8 C326.1,313.3 320.3,313.3 316.8,316.8 C313.3,320.3 313.3,326.1 316.8,329.6 L348.5,361.3 L348.5,361.3 Z M404.2,367.1 C414.4,377.3 414.4,394 404.2,404.3 C399.2,409.3 392.6,412 385.6,412 C378.6,412 372,409.3 367,404.3 C356.8,394.1 356.8,377.4 367,367.2 L367,367.2 L367,367.2 C372,362.2 378.6,359.5 385.6,359.5 C392.7,359.4 399.3,362.1 404.2,367.1 L404.2,367.1 Z" id="Shape" fill="#000000"></path>
                <path d="M316.8,171.8 C318.6,173.6 320.9,174.5 323.2,174.5 C325.5,174.5 327.8,173.6 329.6,171.8 L361.3,140.1 C368.5,144.8 376.8,147.4 385.6,147.4 C397.5,147.4 408.6,142.8 417,134.4 C425.4,126 430,114.9 430,103 C430,91.1 425.4,80 417,71.6 C408.6,63.2 397.5,58.6 385.6,58.6 C373.7,58.6 362.6,63.2 354.2,71.6 C345.8,80 341.2,91.1 341.2,103 C341.2,111.8 343.7,120.2 348.5,127.3 L316.8,159 C313.3,162.5 313.3,168.3 316.8,171.8 L316.8,171.8 Z M367.1,84.4 C372.1,79.4 378.7,76.7 385.7,76.7 C392.7,76.7 399.3,79.4 404.3,84.4 C414.5,94.6 414.5,111.3 404.3,121.6 C399.3,126.6 392.7,129.3 385.7,129.3 C378.7,129.3 372.1,126.6 367.1,121.6 L367.1,121.6 L367.1,121.6 C356.8,111.3 356.8,94.6 367.1,84.4 L367.1,84.4 Z" id="Shape" fill="#000000"></path>
                <path d="M171.8,316.8 C168.3,313.3 162.5,313.3 159,316.8 L127.3,348.5 C120.1,343.8 111.8,341.2 103,341.2 C91.1,341.2 80,345.8 71.6,354.2 C63.2,362.6 58.6,373.7 58.6,385.6 C58.6,397.5 63.2,408.6 71.6,417 C80,425.4 91.1,430 103,430 C114.9,430 126,425.4 134.4,417 C142.8,408.6 147.4,397.5 147.4,385.6 C147.4,376.8 144.9,368.4 140.1,361.3 L171.8,329.6 C175.3,326.1 175.3,320.3 171.8,316.8 L171.8,316.8 Z M121.5,404.2 C116.5,409.2 109.9,411.9 102.9,411.9 C95.9,411.9 89.3,409.2 84.3,404.2 C74.1,394 74.1,377.3 84.3,367 C89.3,362 95.9,359.3 102.9,359.3 C109.9,359.3 116.5,362 121.5,367 L121.5,367 L121.5,367 C131.8,377.3 131.8,394 121.5,404.2 L121.5,404.2 Z" id="Shape" fill="#000000"></path>
                <path d="M255.8,235 L232.8,235 C223.9,235 216.7,227.8 216.7,218.9 C216.7,210 223.9,202.8 232.8,202.8 L273.3,202.8 C278.3,202.8 282.4,198.7 282.4,193.7 C282.4,188.7 278.3,184.6 273.3,184.6 L253.3,184.6 L253.3,169.6 C253.3,164.6 249.2,160.5 244.2,160.5 C239.2,160.5 235.1,164.6 235.1,169.6 L235.1,184.6 L232.7,184.6 C213.8,184.6 198.4,200 198.4,218.9 C198.4,237.8 213.8,253.2 232.7,253.2 L255.7,253.2 C264.6,253.2 271.8,260.4 271.8,269.3 C271.8,278.2 264.6,285.4 255.7,285.4 L214.4,285.4 C209.4,285.4 205.3,289.5 205.3,294.5 C205.3,299.5 209.4,303.6 214.4,303.6 L235.1,303.6 L235.1,318.9 C235.1,323.9 239.2,328 244.2,328 C249.2,328 253.3,323.9 253.3,318.9 L253.3,303.6 L255.7,303.6 C274.6,303.6 290,288.2 290,269.3 C290,250.4 274.7,235 255.8,235 L255.8,235 Z" id="Shape" fill="#000000"></path>
                <path d="M199.9,44.4 C199.9,65.8 215.1,83.7 235.2,87.9 L235.2,132.7 C235.2,137.7 239.3,141.8 244.3,141.8 C249.3,141.8 253.4,137.7 253.4,132.7 L253.4,87.9 C273.5,83.7 288.7,65.8 288.7,44.4 C288.7,19.9 268.8,7.10542736e-15 244.3,7.10542736e-15 C219.8,7.10542736e-15 199.9,19.9 199.9,44.4 L199.9,44.4 Z M270.6,44.4 C270.6,58.9 258.8,70.7 244.3,70.7 C229.8,70.7 218,58.9 218,44.4 C218,29.9 229.8,18.1 244.3,18.1 C258.8,18.1 270.6,29.9 270.6,44.4 L270.6,44.4 Z" id="Shape" fill="#000000"></path>
                <path d="M400.7,235.2 L355.9,235.2 C350.9,235.2 346.8,239.3 346.8,244.3 C346.8,249.3 350.9,253.4 355.9,253.4 L400.7,253.4 C404.9,273.5 422.8,288.7 444.2,288.7 C468.7,288.7 488.6,268.8 488.6,244.3 C488.6,219.8 468.7,199.9 444.2,199.9 C422.8,199.9 404.9,215.1 400.7,235.2 L400.7,235.2 Z M470.5,244.3 C470.5,258.8 458.7,270.6 444.2,270.6 C429.7,270.6 417.9,258.8 417.9,244.3 L417.9,244.3 L417.9,244.3 C417.9,229.8 429.7,218 444.2,218 C458.7,218 470.5,229.8 470.5,244.3 L470.5,244.3 Z" id="Shape" fill="#000000"></path>
                <path d="M44.4,288.7 C65.8,288.7 83.7,273.5 87.9,253.4 L132.7,253.4 C137.7,253.4 141.8,249.3 141.8,244.3 C141.8,239.3 137.7,235.2 132.7,235.2 L87.9,235.2 C83.7,215.1 65.8,199.9 44.4,199.9 C19.9,199.9 0,219.8 0,244.3 C0,268.8 19.9,288.7 44.4,288.7 L44.4,288.7 Z M44.4,218 C58.9,218 70.7,229.8 70.7,244.3 L70.7,244.3 L70.7,244.3 C70.7,258.8 58.9,270.6 44.4,270.6 C29.9,270.6 18.1,258.8 18.1,244.3 C18.1,229.8 29.9,218 44.4,218 L44.4,218 Z" id="Shape" fill="#000000"></path>
                <path d="M134.3,71.5 C125.9,63.1 114.8,58.5 102.9,58.5 C91,58.5 79.9,63.1 71.5,71.5 C63.1,79.9 58.5,91 58.5,102.9 C58.5,114.8 63.1,125.9 71.5,134.3 C79.9,142.7 91,147.3 102.9,147.3 C111.7,147.3 120.1,144.8 127.2,140 L158.9,171.7 C160.7,173.5 163,174.4 165.3,174.4 C167.6,174.4 169.9,173.5 171.7,171.7 C175.2,168.2 175.2,162.4 171.7,158.9 L140.1,127.3 C144.8,120.1 147.4,111.8 147.4,103 C147.3,91.1 142.7,79.9 134.3,71.5 L134.3,71.5 Z M84.4,121.5 C74.2,111.3 74.2,94.6 84.4,84.3 C89.4,79.3 96,76.6 103,76.6 C110,76.6 116.6,79.3 121.6,84.3 C131.8,94.5 131.8,111.2 121.6,121.4 L121.6,121.4 L121.6,121.4 C116.6,126.4 110,129.1 103,129.1 C95.9,129.2 89.3,126.5 84.4,121.5 L84.4,121.5 Z" id="Shape" fill="#000000"></path>
            </g>
        </g>
    </g>
</svg>