<?xml version="1.0" encoding="UTF-8" standalone="no"?>
<svg width="301px" height="301px" viewBox="0 0 301 301" version="1.1" xmlns="http://www.w3.org/2000/svg" xmlns:xlink="http://www.w3.org/1999/xlink">
    <!-- Generator: Sketch 40.3 (33839) - http://www.bohemiancoding.com/sketch -->
    <title>growth</title>
    <desc>Created with Sketch.</desc>
    <defs></defs>
    <g id="Page-1" stroke="none" stroke-width="1" fill="none" fill-rule="evenodd">
        <g id="growth">
            <g id="Group">
                <path d="M295.32,106.508 C272.145,106.508 253.191,124.711 251.874,147.562 L242.066,154.921 L242.066,82.302 L232.383,82.302 L232.383,131.354 L212.882,118.355 C211.483,95.577 192.563,77.461 169.446,77.461 L164.605,77.461 L164.605,82.302 C164.605,105.792 183.302,124.949 206.589,125.791 L232.383,142.987 L232.383,174.286 L193.653,174.286 L193.653,193.651 L193.653,203.334 L193.653,213.017 L193.653,222.7 L193.653,232.383 L193.653,242.066 L193.653,251.749 L193.653,261.432 L193.653,271.115 L193.653,280.798 L193.653,300.163 L280.796,300.163 L280.796,280.798 L280.796,271.115 L280.796,261.432 L280.796,251.749 L280.796,242.066 L280.796,232.383 L280.796,222.7 L280.796,213.017 L280.796,203.334 L280.796,193.651 L280.796,174.286 L242.066,174.286 L242.066,167.024 L258.318,154.834 C281.537,153.914 300.161,134.791 300.161,111.35 L300.161,106.509 L295.32,106.509 L295.32,106.508 L295.32,106.508 Z M174.695,87.55 C189.19,89.811 200.668,101.29 202.929,115.784 C188.435,113.523 176.956,102.045 174.695,87.55 L174.695,87.55 Z M232.384,203.334 L232.384,213.017 L222.701,213.017 L222.701,203.334 L232.384,203.334 L232.384,203.334 Z M232.384,222.699 L232.384,232.382 L222.701,232.382 L222.701,222.699 L232.384,222.699 L232.384,222.699 Z M232.384,242.064 L232.384,251.747 L222.701,251.747 L222.701,242.064 L232.384,242.064 L232.384,242.064 Z M232.384,261.429 L232.384,271.112 L222.701,271.112 L222.701,261.429 L232.384,261.429 L232.384,261.429 Z M232.384,280.795 L232.384,290.478 L222.701,290.478 L222.701,280.795 L232.384,280.795 L232.384,280.795 Z M242.066,280.795 L251.749,280.795 L251.749,290.478 L242.066,290.478 L242.066,280.795 L242.066,280.795 Z M242.066,271.112 L242.066,261.429 L251.749,261.429 L251.749,271.112 L242.066,271.112 L242.066,271.112 Z M242.066,251.747 L242.066,242.064 L251.749,242.064 L251.749,251.747 L242.066,251.747 L242.066,251.747 Z M242.066,232.382 L242.066,222.699 L251.749,222.699 L251.749,232.382 L242.066,232.382 L242.066,232.382 Z M242.066,213.017 L242.066,203.334 L251.749,203.334 L251.749,213.017 L242.066,213.017 L242.066,213.017 Z M242.066,193.651 L242.066,183.968 L251.749,183.968 L251.749,193.651 L242.066,193.651 L242.066,193.651 Z M232.384,193.651 L222.701,193.651 L222.701,183.968 L232.384,183.968 L232.384,193.651 L232.384,193.651 Z M203.336,183.969 L213.019,183.969 L213.019,193.652 L203.336,193.652 L203.336,183.969 L203.336,183.969 Z M203.336,203.334 L213.019,203.334 L213.019,213.017 L203.336,213.017 L203.336,203.334 L203.336,203.334 Z M203.336,222.699 L213.019,222.699 L213.019,232.382 L203.336,232.382 L203.336,222.699 L203.336,222.699 Z M203.336,242.064 L213.019,242.064 L213.019,251.747 L203.336,251.747 L203.336,242.064 L203.336,242.064 Z M203.336,261.429 L213.019,261.429 L213.019,271.112 L203.336,271.112 L203.336,261.429 L203.336,261.429 Z M203.336,280.795 L213.019,280.795 L213.019,290.478 L203.336,290.478 L203.336,280.795 L203.336,280.795 Z M271.114,290.477 L261.431,290.477 L261.431,280.794 L271.114,280.794 L271.114,290.477 L271.114,290.477 Z M271.114,271.112 L261.431,271.112 L261.431,261.429 L271.114,261.429 L271.114,271.112 L271.114,271.112 Z M271.114,251.747 L261.431,251.747 L261.431,242.064 L271.114,242.064 L271.114,251.747 L271.114,251.747 Z M271.114,232.382 L261.431,232.382 L261.431,222.699 L271.114,222.699 L271.114,232.382 L271.114,232.382 Z M271.114,213.017 L261.431,213.017 L261.431,203.334 L271.114,203.334 L271.114,213.017 L271.114,213.017 Z M271.114,193.651 L261.431,193.651 L261.431,183.968 L271.114,183.968 L271.114,193.651 L271.114,193.651 Z M261.838,144.832 C264.099,130.337 275.578,118.859 290.072,116.598 C287.812,131.092 276.333,142.571 261.838,144.832 L261.838,144.832 Z" id="Shape" fill="#333333"></path>
                <path d="M237.225,87.143 C213.198,87.143 193.653,67.599 193.653,43.571 C193.653,19.543 213.198,0 237.225,0 C261.252,0 280.797,19.544 280.797,43.572 C280.797,67.6 261.252,87.143 237.225,87.143 L237.225,87.143 Z" id="Shape" fill="#3AAA35"></path>
                <path d="M242.066,58.095 L232.383,58.095 C229.715,58.095 227.542,55.926 227.542,53.254 L217.859,53.254 C217.859,61.261 224.375,67.778 232.383,67.778 L232.383,72.619 L242.066,72.619 L242.066,67.778 C250.073,67.778 256.59,61.262 256.59,53.254 C256.59,45.246 250.074,38.73 242.066,38.73 L232.383,38.73 C229.715,38.73 227.542,36.561 227.542,33.889 C227.542,31.217 229.716,29.048 232.383,29.048 L242.066,29.048 C244.734,29.048 246.907,31.217 246.907,33.889 L256.59,33.889 C256.59,25.882 250.074,19.365 242.066,19.365 L242.066,14.524 L232.383,14.524 L232.383,19.365 C224.376,19.365 217.859,25.881 217.859,33.889 C217.859,41.897 224.375,48.413 232.383,48.413 L242.066,48.413 C244.734,48.413 246.907,50.582 246.907,53.254 C246.907,55.926 244.734,58.095 242.066,58.095 L242.066,58.095 Z" id="Shape" fill="#FFFFFF"></path>
                <path d="M96.828,232.382 L96.828,242.065 L96.828,251.748 L96.828,261.431 L96.828,271.114 L96.828,280.797 L96.828,300.162 L183.971,300.162 L183.971,280.797 L183.971,271.114 L183.971,261.431 L183.971,251.748 L183.971,242.065 L183.971,232.382 L183.971,213.017 L96.828,213.017 L96.828,232.382 L96.828,232.382 Z M106.51,242.064 L116.193,242.064 L116.193,251.747 L106.51,251.747 L106.51,242.064 L106.51,242.064 Z M125.875,251.747 L125.875,242.064 L135.558,242.064 L135.558,251.747 L125.875,251.747 L125.875,251.747 Z M135.558,261.429 L135.558,271.112 L125.875,271.112 L125.875,261.429 L135.558,261.429 L135.558,261.429 Z M135.558,280.795 L135.558,290.478 L125.875,290.478 L125.875,280.795 L135.558,280.795 L135.558,280.795 Z M145.241,280.795 L154.924,280.795 L154.924,290.478 L145.241,290.478 L145.241,280.795 L145.241,280.795 Z M145.241,271.112 L145.241,261.429 L154.924,261.429 L154.924,271.112 L145.241,271.112 L145.241,271.112 Z M145.241,251.747 L145.241,242.064 L154.924,242.064 L154.924,251.747 L145.241,251.747 L145.241,251.747 Z M145.241,232.382 L145.241,222.699 L154.924,222.699 L154.924,232.382 L145.241,232.382 L145.241,232.382 Z M135.558,232.382 L125.875,232.382 L125.875,222.699 L135.558,222.699 L135.558,232.382 L135.558,232.382 Z M106.51,261.429 L116.193,261.429 L116.193,271.112 L106.51,271.112 L106.51,261.429 L106.51,261.429 Z M106.51,280.795 L116.193,280.795 L116.193,290.478 L106.51,290.478 L106.51,280.795 L106.51,280.795 Z M174.288,290.477 L164.605,290.477 L164.605,280.794 L174.288,280.794 L174.288,290.477 L174.288,290.477 Z M174.288,271.112 L164.605,271.112 L164.605,261.429 L174.288,261.429 L174.288,271.112 L174.288,271.112 Z M174.288,251.747 L164.605,251.747 L164.605,242.064 L174.288,242.064 L174.288,251.747 L174.288,251.747 Z M174.288,232.382 L164.605,232.382 L164.605,222.699 L174.288,222.699 L174.288,232.382 L174.288,232.382 Z M106.51,222.699 L116.193,222.699 L116.193,232.382 L106.51,232.382 L106.51,222.699 L106.51,222.699 Z" id="Shape" fill="#333333"></path>
                <path d="M0.002,271.112 L0.002,280.795 L0.002,300.16 L87.145,300.16 L87.145,280.795 L87.145,271.112 L87.145,251.747 L0.002,251.747 L0.002,271.112 L0.002,271.112 Z M9.685,280.795 L19.368,280.795 L19.368,290.478 L9.685,290.478 L9.685,280.795 L9.685,280.795 Z M48.415,280.795 L58.098,280.795 L58.098,290.478 L48.415,290.478 L48.415,280.795 L48.415,280.795 Z M38.732,290.477 L29.049,290.477 L29.049,280.794 L38.732,280.794 L38.732,290.477 L38.732,290.477 Z M48.415,271.112 L48.415,261.429 L58.098,261.429 L58.098,271.112 L48.415,271.112 L48.415,271.112 Z M38.732,271.112 L29.049,271.112 L29.049,261.429 L38.732,261.429 L38.732,271.112 L38.732,271.112 Z M77.463,290.477 L67.78,290.477 L67.78,280.794 L77.463,280.794 L77.463,290.477 L77.463,290.477 Z M77.463,271.112 L67.78,271.112 L67.78,261.429 L77.463,261.429 L77.463,271.112 L77.463,271.112 Z M9.685,261.429 L19.368,261.429 L19.368,271.112 L9.685,271.112 L9.685,261.429 L9.685,261.429 Z" id="Shape" fill="#333333"></path>
                <polygon id="Shape" fill="#333333" points="74.04 137.309 114.208 162.415 146.432 51.937 155.431 69.942 164.097 65.614 147.405 32.233 114.029 48.921 118.357 57.587 137.49 48.021 108.495 147.427 71.203 124.121 0.815 229.695 8.871 235.069"></polygon>
            </g>
        </g>
    </g>
</svg>