<?xml version="1.0" encoding="UTF-8" standalone="no"?>
<svg width="282px" height="286px" viewBox="0 0 282 286" version="1.1" xmlns="http://www.w3.org/2000/svg" xmlns:xlink="http://www.w3.org/1999/xlink">
    <!-- Generator: Sketch 40.3 (33839) - http://www.bohemiancoding.com/sketch -->
    <title>increase</title>
    <desc>Created with Sketch.</desc>
    <defs></defs>
    <g id="Page-1" stroke="none" stroke-width="1" fill="none" fill-rule="evenodd">
        <g id="increase">
            <g id="Layer_1">
                <g id="Group">
                    <path d="M178.469,220.313 C178.469,198.179 159.292,180.526 136.652,183.057 C119.707,184.951 105.836,198.662 103.76,215.588 C102.077,229.318 107.843,241.786 117.532,249.563 L117.532,281.832 C117.532,284.101 119.37,285.938 121.638,285.938 L160.3,285.938 C162.569,285.938 164.406,284.101 164.406,281.832 L164.406,249.563 C172.97,242.686 178.469,232.148 178.469,220.313 L178.469,220.313 Z" id="Shape" fill="#3AAA35"></path>
                    <path d="M281.594,70.313 C281.594,48.179 262.417,30.526 239.777,33.057 C222.832,34.951 208.961,48.662 206.885,65.588 C205.202,79.318 210.968,91.786 220.657,99.563 L220.657,131.832 C220.657,134.101 222.494,135.938 224.763,135.938 L263.425,135.938 C265.694,135.938 267.531,134.101 267.531,131.832 L267.531,99.563 C276.095,92.686 281.594,82.148 281.594,70.313 L281.594,70.313 Z" id="Shape" fill="#3AAA35"></path>
                    <path d="M75.344,70.313 C75.344,48.179 56.167,30.526 33.527,33.057 C16.581,34.95 2.711,48.661 0.634,65.588 C-1.049,79.318 4.717,91.786 14.406,99.563 L14.406,131.832 C14.406,134.101 16.244,135.938 18.512,135.938 L57.175,135.938 C59.444,135.938 61.281,134.101 61.281,131.832 L61.281,99.563 C69.845,92.686 75.344,82.148 75.344,70.313 L75.344,70.313 Z" id="Shape" fill="#3AAA35"></path>
                    <rect id="Rectangle-path" fill="#333333" x="108.156" y="267.188" width="65.625" height="9.375"></rect>
                    <path d="M145.656,233.513 C151.098,231.572 155.031,226.416 155.031,220.313 C155.031,212.56 148.722,206.25 140.968,206.25 C133.214,206.25 126.905,212.559 126.905,220.313 C126.905,226.416 130.838,231.572 136.28,233.513 L136.28,253.125 L108.155,253.125 L108.155,262.5 L173.78,262.5 L173.78,253.125 L145.655,253.125 L145.655,233.513 L145.656,233.513 L145.656,233.513 Z M140.969,215.625 C143.552,215.625 145.657,217.73 145.657,220.313 C145.657,222.896 143.551,225 140.969,225 C138.387,225 136.281,222.895 136.281,220.312 C136.281,217.729 138.386,215.625 140.969,215.625 L140.969,215.625 Z" id="Shape" fill="#333333"></path>
                    <path d="M248.781,103.125 L248.781,83.512 C254.223,81.571 258.156,76.415 258.156,70.312 C258.156,62.559 251.847,56.249 244.093,56.249 C236.339,56.249 230.03,62.558 230.03,70.312 C230.03,76.415 233.963,81.571 239.405,83.512 L239.405,103.125 L211.28,103.125 L211.28,112.5 L276.905,112.5 L276.905,103.125 L248.781,103.125 L248.781,103.125 Z M244.094,65.625 C246.677,65.625 248.782,67.73 248.782,70.313 C248.782,72.896 246.676,75 244.094,75 C241.512,75 239.406,72.895 239.406,70.312 C239.406,67.729 241.511,65.625 244.094,65.625 L244.094,65.625 Z" id="Shape" fill="#333333"></path>
                    <rect id="Rectangle-path" fill="#333333" x="211.281" y="117.188" width="65.625" height="9.375"></rect>
                    <path d="M70.656,103.125 L42.531,103.125 L42.531,83.512 C47.973,81.571 51.906,76.415 51.906,70.312 C51.906,62.559 45.597,56.249 37.843,56.249 C30.089,56.249 23.78,62.558 23.78,70.312 C23.78,76.415 27.713,81.571 33.155,83.512 L33.155,103.125 L5.031,103.125 L5.031,112.5 L70.656,112.5 L70.656,103.125 L70.656,103.125 Z M37.844,65.625 C40.427,65.625 42.532,67.73 42.532,70.313 C42.532,72.896 40.426,75 37.844,75 C35.262,75 33.156,72.895 33.156,70.312 C33.156,67.729 35.261,65.625 37.844,65.625 L37.844,65.625 Z" id="Shape" fill="#333333"></path>
                    <rect id="Rectangle-path" fill="#333333" x="5.031" y="117.188" width="65.625" height="9.375"></rect>
                    <path d="M39.316,153.127 L30.475,156.254 C39.803,182.635 58.356,204.868 82.712,218.856 L87.381,210.728 C64.966,197.85 47.898,177.398 39.316,153.127 L39.316,153.127 Z" id="Shape" fill="#333333"></path>
                    <path d="M140.969,9.375 C164.435,9.375 186.742,16.781 205.478,30.797 L211.094,23.288 C190.722,8.053 166.473,0 140.969,0 C115.483,0 91.253,8.039 70.891,23.25 L76.502,30.764 C95.233,16.772 117.526,9.375 140.969,9.375 L140.969,9.375 Z" id="Shape" fill="#333333"></path>
                    <path d="M194.598,210.698 L199.271,218.826 C223.604,204.838 242.138,182.615 251.457,156.248 L242.616,153.121 C234.048,177.38 216.995,197.827 194.598,210.698 L194.598,210.698 Z" id="Shape" fill="#333333"></path>
                    <path d="M112.844,140.625 L112.844,93.75 L84.719,93.75 L84.719,140.625 L112.844,140.625 L112.844,140.625 Z M94.094,103.125 L103.469,103.125 L103.469,131.25 L94.094,131.25 L94.094,103.125 L94.094,103.125 Z" id="Shape" fill="#333333"></path>
                    <path d="M126.906,140.625 L155.031,140.625 L155.031,70.313 L126.906,70.313 L126.906,140.625 L126.906,140.625 Z M136.281,79.688 L145.656,79.688 L145.656,131.251 L136.281,131.251 L136.281,79.688 L136.281,79.688 Z" id="Shape" fill="#333333"></path>
                    <path d="M197.219,140.625 L197.219,56.25 L169.094,56.25 L169.094,140.625 L197.219,140.625 L197.219,140.625 Z M178.469,65.625 L187.844,65.625 L187.844,131.25 L178.469,131.25 L178.469,65.625 L178.469,65.625 Z" id="Shape" fill="#333333"></path>
                </g>
            </g>
        </g>
    </g>
</svg>