<?xml version="1.0" encoding="UTF-8" standalone="no"?>
<svg width="291px" height="235px" viewBox="0 0 291 235" version="1.1" xmlns="http://www.w3.org/2000/svg" xmlns:xlink="http://www.w3.org/1999/xlink">
    <!-- Generator: Sketch 40.3 (33839) - http://www.bohemiancoding.com/sketch -->
    <title>navigate</title>
    <desc>Created with Sketch.</desc>
    <defs></defs>
    <g id="Page-1" stroke="none" stroke-width="1" fill="none" fill-rule="evenodd">
        <g id="navigate">
            <g id="Layer_1">
                <g id="Group">
                    <rect id="Rectangle-path" fill="#3AAA35" x="18.75" y="18.875" width="253.125" height="37.5"></rect>
                    <path d="M276.563,0.125 L14.063,0.125 C6.309,0.125 0,6.435 0,14.188 L0,187.626 C0,195.379 6.309,201.689 14.063,201.689 L93.75,201.689 L93.75,225.127 L70.313,225.127 L70.313,234.502 L168.751,234.502 L220.314,234.502 L276.564,234.502 C284.317,234.502 290.627,228.193 290.627,220.439 L290.627,79.813 L290.627,70.438 L290.627,14.188 C290.625,6.435 284.316,0.125 276.563,0.125 L276.563,0.125 Z M14.063,9.5 L276.563,9.5 C279.15,9.5 281.251,11.605 281.251,14.188 L281.251,57.238 C279.779,56.713 278.213,56.376 276.563,56.376 L271.875,56.376 L168.75,56.376 L18.75,56.376 L18.75,150.126 L154.688,150.126 L154.688,159.501 L9.375,159.501 L9.375,14.188 C9.375,11.605 11.475,9.5 14.063,9.5 L14.063,9.5 Z M154.688,75.125 L145.313,75.125 L145.313,84.5 L154.688,84.5 L154.688,98.563 L145.313,98.563 L145.313,107.938 L154.688,107.938 L154.688,122 L145.313,122 L145.313,131.375 L154.688,131.375 L154.688,140.75 L28.125,140.75 L28.125,65.75 L155.55,65.75 C155.025,67.222 154.687,68.787 154.687,70.438 L154.687,75.125 L154.688,75.125 L154.688,75.125 Z M9.375,187.625 L9.375,168.875 L154.688,168.875 L154.688,192.313 L14.063,192.313 C11.475,192.313 9.375,190.208 9.375,187.625 L9.375,187.625 Z M103.125,201.688 L154.688,201.688 L154.688,220.438 C154.688,222.088 155.025,223.654 155.551,225.126 L103.126,225.126 L103.126,201.688 L103.125,201.688 L103.125,201.688 Z M281.25,220.438 C281.25,223.021 279.15,225.126 276.562,225.126 L225,225.126 L220.312,225.126 L168.75,225.126 C166.163,225.126 164.062,223.021 164.062,220.438 L164.062,201.688 L164.062,192.313 L164.062,168.875 L164.062,159.5 L164.062,150.125 L164.062,140.75 L164.062,131.375 L164.062,122 L164.062,107.937 L164.062,98.562 L164.062,84.5 L164.062,75.125 L164.062,70.437 C164.062,67.854 166.162,65.749 168.75,65.749 L262.5,65.749 L262.5,75.124 L173.437,75.124 L173.437,215.75 L225,215.75 L271.875,215.75 L271.875,87.027 L271.875,75.125 L271.875,65.75 L276.563,65.75 C279.15,65.75 281.251,67.855 281.251,70.438 L281.251,79.813 L281.25,220.438 L281.25,220.438 L281.25,220.438 Z M262.5,87.027 L262.5,206.375 L182.812,206.375 L182.812,84.5 L262.5,84.5 L262.5,87.027 L262.5,87.027 Z" id="Shape" fill="#333333"></path>
                    <circle id="Oval" fill="#333333" cx="42.188" cy="37.625" r="4.688"></circle>
                    <circle id="Oval" fill="#333333" cx="56.25" cy="37.625" r="4.688"></circle>
                    <circle id="Oval" fill="#333333" cx="70.313" cy="37.625" r="4.688"></circle>
                    <path d="M37.5,131.375 L135.938,131.375 L135.938,75.125 L37.5,75.125 L37.5,131.375 L37.5,131.375 Z M46.875,84.5 L126.563,84.5 L126.563,122 L46.875,122 L46.875,84.5 L46.875,84.5 Z" id="Shape" fill="#333333"></path>
                    <circle id="Oval" fill="#333333" cx="225" cy="220.438" r="4.688"></circle>
                    <path d="M253.125,93.875 L192.187,93.875 L192.187,140.75 L253.125,140.75 L253.125,93.875 L253.125,93.875 Z M243.75,131.375 L201.562,131.375 L201.562,103.25 L243.75,103.25 L243.75,131.375 L243.75,131.375 Z" id="Shape" fill="#333333"></path>
                    <rect id="Rectangle-path" fill="#333333" x="192.188" y="150.125" width="60.938" height="9.375"></rect>
                    <rect id="Rectangle-path" fill="#333333" x="192.188" y="168.875" width="60.938" height="9.375"></rect>
                    <rect id="Rectangle-path" fill="#333333" x="192.188" y="187.625" width="60.938" height="9.375"></rect>
                </g>
            </g>
        </g>
    </g>
</svg>