<?xml version="1.0" encoding="UTF-8" standalone="no"?>
<svg width="293px" height="291px" viewBox="0 0 293 291" version="1.1" xmlns="http://www.w3.org/2000/svg" xmlns:xlink="http://www.w3.org/1999/xlink">
    <!-- Generator: Sketch 40.3 (33839) - http://www.bohemiancoding.com/sketch -->
    <title>save</title>
    <desc>Created with Sketch.</desc>
    <defs></defs>
    <g id="Page-1" stroke="none" stroke-width="1" fill="none" fill-rule="evenodd">
        <g id="save">
            <g id="Layer_1">
                <g id="Group">
                    <circle id="Oval" fill="#3AAA35" cx="114.506" cy="135.942" r="60.938"></circle>
                    <path d="M231.694,168.755 C221.916,168.755 212.7,171.127 204.507,175.238 C209.921,162.924 212.757,149.644 212.757,135.943 C212.757,114.718 205.937,95.091 194.466,78.999 L200.588,72.877 L208.876,81.164 L228.76,61.28 L188.987,21.507 L169.098,41.39 L177.386,49.677 L170.186,55.799 C158.341,47.352 147.32,41.507 128.57,38.985 L128.57,28.129 L142.633,28.129 L142.633,0.004 L86.383,0.004 L86.383,28.129 L95.758,28.129 L95.758,38.985 C81.695,41.498 68.228,47.31 56.402,55.715 L50.899,49.673 L59.458,41.386 L39.708,21.501 L0,61.274 L19.922,81.158 L28.224,72.871 L34.247,78.885 C22.725,95.005 15.877,114.669 15.877,135.941 C15.877,181.353 47.293,220.879 91.069,231.5 L91.069,234.378 L100.444,234.378 L100.444,253.128 L105.132,253.128 L105.132,262.503 L95.757,262.503 L95.757,290.628 L217.632,290.628 L217.632,288.926 C222.155,289.999 226.848,290.628 231.695,290.628 C265.295,290.628 292.633,263.291 292.633,229.691 C292.633,196.091 265.294,168.755 231.694,168.755 L231.694,168.755 Z M152.006,262.504 L152.006,253.129 L161.381,253.129 L161.381,262.504 L152.006,262.504 L152.006,262.504 Z M147.319,215.63 L147.319,225.005 L137.944,225.005 L137.944,215.63 L147.319,215.63 L147.319,215.63 Z M156.694,225.005 L156.694,215.63 L166.069,215.63 L166.069,225.005 L156.694,225.005 L156.694,225.005 Z M156.694,234.38 L156.694,243.755 L147.319,243.755 L147.319,234.38 L156.694,234.38 L156.694,234.38 Z M166.069,243.755 L166.069,234.38 L170.996,234.38 C171.24,237.582 171.737,240.708 172.463,243.755 L166.069,243.755 L166.069,243.755 Z M161.381,206.255 L161.381,196.88 L170.756,196.88 L170.756,206.255 L161.381,206.255 L161.381,206.255 Z M152.006,206.255 L142.631,206.255 L142.631,196.88 L152.006,196.88 L152.006,206.255 L152.006,206.255 Z M133.256,206.255 L123.881,206.255 L123.881,196.88 L133.256,196.88 L133.256,206.255 L133.256,206.255 Z M114.506,206.255 L105.131,206.255 L105.131,196.88 L114.506,196.88 L114.506,206.255 L114.506,206.255 Z M128.569,215.63 L128.569,225.005 L119.194,225.005 L119.194,215.63 L128.569,215.63 L128.569,215.63 Z M137.944,234.38 L137.944,243.755 L128.569,243.755 L128.569,234.38 L137.944,234.38 L137.944,234.38 Z M142.631,253.13 L142.631,262.505 L133.256,262.505 L133.256,253.13 L142.631,253.13 L142.631,253.13 L142.631,253.13 Z M133.256,271.879 L133.256,281.254 L123.881,281.254 L123.881,271.879 L133.256,271.879 L133.256,271.879 Z M142.631,271.879 L152.006,271.879 L152.006,281.254 L142.631,281.254 L142.631,271.879 L142.631,271.879 Z M161.381,271.879 L170.756,271.879 L170.756,281.254 L161.381,281.254 L161.381,271.879 L161.381,271.879 Z M170.756,262.504 L170.756,253.129 L175.458,253.129 C176.831,256.415 178.524,259.537 180.427,262.504 L170.756,262.504 L170.756,262.504 Z M180.131,196.88 L180.426,196.88 C180.323,197.039 180.229,197.203 180.131,197.368 L180.131,196.88 L180.131,196.88 Z M188.986,34.757 L215.503,61.274 L208.875,67.902 L182.358,41.385 L188.986,34.757 L188.986,34.757 Z M184.017,56.301 L193.959,66.243 L188.625,71.577 C185.55,68.029 182.227,64.71 178.683,61.63 L184.017,56.301 L184.017,56.301 Z M95.756,18.754 L95.756,9.379 L133.256,9.379 L133.256,18.754 L130.725,18.754 L97.912,18.754 L95.756,18.754 L95.756,18.754 Z M105.131,37.504 L105.131,28.129 L119.194,28.129 L119.194,37.504 L105.131,37.504 L105.131,37.504 Z M13.322,61.274 L39.839,34.757 L46.467,41.385 L19.95,67.903 L13.322,61.274 L13.322,61.274 Z M34.866,66.248 L44.808,56.306 L50.049,61.547 C46.496,64.617 43.177,67.941 40.097,71.48 L34.866,66.248 L34.866,66.248 Z M25.256,135.942 C25.256,86.831 65.208,46.879 114.318,46.879 C163.428,46.879 203.381,86.831 203.381,135.942 C203.381,154.547 197.601,172.312 186.74,187.505 L95.756,187.505 L95.756,206.255 L91.068,206.255 L91.068,221.855 C52.622,211.477 25.256,176.268 25.256,135.942 L25.256,135.942 Z M100.444,215.63 L109.819,215.63 L109.819,225.005 L100.444,225.005 L100.444,215.63 L100.444,215.63 Z M119.194,234.38 L119.194,243.755 L109.819,243.755 L109.819,234.38 L119.194,234.38 L119.194,234.38 Z M114.506,253.13 L123.881,253.13 L123.881,262.505 L114.506,262.505 L114.506,253.13 L114.506,253.13 Z M105.131,271.879 L114.506,271.879 L114.506,281.254 L105.131,281.254 L105.131,271.879 L105.131,271.879 Z M180.131,281.254 L180.131,271.879 L187.823,271.879 C191.264,275.46 195.145,278.596 199.368,281.254 L180.131,281.254 L180.131,281.254 Z M231.694,281.254 C203.264,281.254 180.131,258.121 180.131,229.692 C180.131,201.263 203.264,178.129 231.694,178.129 C260.124,178.129 283.257,201.262 283.257,229.692 C283.257,258.122 260.123,281.254 231.694,281.254 L231.694,281.254 Z" id="Shape" fill="#333333"></path>
                    <path d="M243.412,192.192 L236.381,192.192 L236.381,182.817 L227.006,182.817 L227.006,192.192 L219.975,192.192 C208.345,192.192 198.881,201.656 198.881,213.286 C198.881,224.916 208.345,234.38 219.975,234.38 L243.413,234.38 C249.872,234.38 255.132,239.635 255.132,246.099 C255.132,252.563 249.873,257.818 243.413,257.818 L219.975,257.818 C213.516,257.818 208.256,252.563 208.256,246.099 L208.256,243.755 L198.881,243.755 L198.881,246.099 C198.881,257.729 208.345,267.193 219.975,267.193 L227.006,267.193 L227.006,276.568 L236.381,276.568 L236.381,267.193 L243.412,267.193 C255.042,267.193 264.506,257.729 264.506,246.099 C264.506,234.469 255.042,225.005 243.412,225.005 L219.974,225.005 C213.515,225.005 208.255,219.75 208.255,213.286 C208.255,206.822 213.514,201.567 219.974,201.567 L243.412,201.567 C249.871,201.567 255.131,206.822 255.131,213.286 L255.131,215.63 L264.506,215.63 L264.506,213.286 C264.506,201.656 255.042,192.192 243.412,192.192 L243.412,192.192 Z" id="Shape" fill="#333333"></path>
                    <path d="M100.256,135.942 C100.256,143.695 106.565,150.005 114.319,150.005 C122.073,150.005 128.382,143.696 128.382,135.942 C128.382,128.189 122.073,121.879 114.319,121.879 C112.299,121.879 110.386,122.324 108.652,123.093 L75.637,85.954 L68.629,92.179 L101.859,129.562 C100.87,131.488 100.256,133.635 100.256,135.942 L100.256,135.942 Z M119.006,135.942 C119.006,138.529 116.901,140.63 114.318,140.63 C111.735,140.63 109.63,138.53 109.63,135.942 C109.63,133.354 111.735,131.254 114.318,131.254 C116.902,131.255 119.006,133.354 119.006,135.942 L119.006,135.942 Z" id="Shape" fill="#333333"></path>
                </g>
            </g>
        </g>
    </g>
</svg>