<svg width="398" height="415" viewBox="85 76 398 415" xmlns="http://www.w3.org/2000/svg"><g fill="none" fill-rule="evenodd"><path d="M166.4 466.5c-3.3-7.3-8.4-13.7-14-19.7s-11.5-11.7-17.4-17.6c-2.9-2.9-5.8-5.9-8.7-9-1.4-1.5-2.8-3.1-4.2-4.6-.8-1-1.3-1.6-2-2.5-.7-.9-1.3-1.8-1.9-2.7-4.8-7.2-8.4-14.8-11.7-22.6-3.3-7.7-6.1-15.7-8.5-23.7-4.9-16-8.4-32.4-10.6-49.1-2.1-16.6-2.8-33.5-1.9-50.2 1-16.8 3.6-33.5 8.3-49.8 4.7-16.2 11.4-31.9 20.1-46.5 8.7-14.5 19.4-27.9 31.6-39.6 12.2-11.7 25.8-21.9 40.4-30.5 14.8-8.7 31.1-14.6 47.8-18 16.7-3.4 33.8-4.3 50.8-3.3 17 1.1 33.8 4.4 50 9.6 16.2 5.2 31.7 12.6 46.1 22 14.3 9.4 27.3 21 37.9 34.8 10.6 13.7 18.7 29.5 23.2 46.4s3.51 49.057 3.816 49.685L453.1 255.2c2.8 5.8 5.5 11.7 8.3 17.6 2.7 5.9 5.4 11.8 8 17.7 2.6 6 5.2 11.9 7.6 18.1 1.2 3.1 2.4 6.2 3.5 9.5.3.8.5 1.7.8 2.6.2 1 .7 2.28.7 3.993 0 1.307-.1 2.307-.2 2.707-.2.9-.4 1.6-.6 2.2-.5 1.3-1 2.2-1.5 3.1-2.1 3.5-4.3 6.1-6.6 8.7-2.3 2.6-4.6 5-6.9 7.4-4.7 4.7-9.5 9.2-14.3 13.5-2.4 2.2-4.9 4.3-7.4 6.4-2.5 2.1-1.873 1.403-5.334 4.445.176 3.755.255 7.474.334 11.255.1 4.7.1 9.5.1 14.2-.1 9.5-.6 19-1.6 28.5-.6 4.8-1.3 9.6-2.4 14.4-1.2 4.8-2.4 9.7-5.7 14.5-.9 1.2-1.9 2.4-3.3 3.4l-1 .7c-1.7.9-2.2 1.1-2.9 1.4-2.5 1-5 1.6-7.5 2.1-4.9.9-9.7 1.3-14.5 1.5-9.6.4-19.1-.1-28.5-1-9.4-.9-18.8-2.3-28-4.1-18.5-3.6-36.8-8.7-53.9-16.6l.5-1.3c8.7 3.4 17.6 6.1 26.7 8.3 9 2.2 18.2 3.9 27.4 5.3 9.2 1.3 18.5 2.2 27.7 2.7 9.3.4 18.5.5 27.7-.2 4.6-.4 9.1-.9 13.4-1.9 2.1-.5 4.2-1.1 6-1.9.4-.2.9-.4 1.2-.6 1.5-1 2-1.6 2.4-2.3 1.9-3 3-7.4 3.8-11.7.8-4.4 1.3-8.9 1.6-13.4.6-9.1.6-18.4.4-27.6-.1-4.6-.3-9.3-.5-13.9s-.6-9.3-.9-13.8l-.2-2.8 2.3-2c2.4-2.1 4.7-4.2 7.1-6.4 2.4-2.2 4.7-4.3 7-6.5 4.6-4.4 9.2-8.8 13.5-13.4 2.2-2.3 4.2-4.6 6.2-6.9 1.9-2.3 3.8-4.7 4.9-6.8.41-1.113.325-1.526.2-1.9-.2-.6-.4-1.3-.7-2-1-2.8-2.2-5.7-3.4-8.6-2.4-5.8-5.1-11.7-7.7-17.5l-8.1-17.5-16.4-34.9-1.4-1.9.2-2c1.9-15.6 1.1-31.5-2.8-46.7-3.8-15.2-10.9-29.4-20.3-42-9.5-12.6-21.3-23.5-34.5-32.4-13.2-8.9-27.7-16-42.9-21.1-15.2-5.1-31.1-8.4-47.1-9.6-16-1.2-32.2-.5-47.9 2.6-15.7 3.1-31 8.4-44.8 16.4-14 8.1-27.1 17.7-38.8 28.8-11.7 11.1-22 23.7-30.4 37.4-8.4 13.7-15 28.6-19.6 44.1-4.6 15.5-7.3 31.6-8.4 47.8-1.1 16.2-.5 32.6 1.4 48.8 2 16.2 5.2 32.2 9.9 47.9 2.3 7.8 5 15.5 8.1 23 3.1 7.5 6.6 14.9 10.9 21.5.5.8 1.1 1.6 1.6 2.4.5.7 1.3 1.7 1.8 2.3l3.9 4.8c2.6 3.2 5.3 6.3 8 9.4 5.4 6.2 11.1 12.2 16.4 18.7 5.3 6.4 10.3 13.5 13.3 21.4 3.1 7.9 3.9 16.6 3.2 24.9l-1.3-.2c.2-8.2-1.1-16.4-4.5-23.7z" fill="#009FE3"/><g fill="#3AAA35"><path d="M366.215 273.198c0 2.009-1.506 4.897-2.259 6.78-.125.252-.25.503-.25.754-.377-.377-1.255-.251-1.506.251-.502.879-.753 1.758-1.004 2.637-.25.125-.376.377-.501.502-.251.628-.377 1.005-.502 1.633-.126.125-.251.376-.377.502-.752 1.13-1.129 2.386-1.881 3.641-1.13 2.01-3.262 3.265-4.266 5.4-.376.753.502 1.758 1.38 1.381 1.631-.753 2.886-2.511 4.015-3.893.25 0 .501-.25.627-.502.125-.251.125-.377.25-.628.879-1.255 1.632-3.013 1.883-4.395.125-.502.25-1.004.501-1.506.377-.503.628-1.005.879-1.633.25-.251.501-.377.752-.628.753-.753 1.004-2.009 1.38-2.888.879-2.134 2.008-5.148 1.757-7.408-.126-.628-.878-.503-.878 0zm-74.771-113.891c-.251-.376-.628-.502-1.38-.627-1.13-.126-1.757 1.506-.628 1.883.126 0 .251.251.377.377-.126.628 0 1.13.376 1.758.502.753.878 1.381 1.506 2.009.627.628 1.38 1.004 1.129 2.009-.251.753.25 1.883 1.003 2.135 0 .125-.125.125-.125.25-.126.252-.251.377-.377.629a3.346 3.346 0 0 0-.376 1.506c0 .754 1.004 1.256 1.631 1.005 1.505-.628 3.136-1.381 3.89-2.763.25-.125.5-.376.877-.627.502-.503.126-1.507-.627-1.507-.502 0-1.004-.126-1.505-.126.25-1.256-1.757-2.386-3.137-3.39-.376-.251-1.38-1.633-1.756-2.26-.251-.377-.251-.628-.377-1.005.126-.753-.125-1.13-.501-1.256z"/><path d="M290.69 164.707c-.25-.502-1.003-.628-1.63-.628-.376-.126-.753-.251-1.13 0-.626.377-.877.753-.877 1.507 0 .125 0 .25.125.376-.376.126-.502.503-.502.88 0 .376.251.753.628.878-.251.252-.377.628-.377 1.005-.125.628.628 1.256 1.255 1.005.878-.377 1.756-.628 2.509-1.13.376-.252.376-.628.25-1.005-.125-.251-.25-.502-.376-.628.502-.753.502-1.507.126-2.26zm24.465 21.723c-1.13-.251-1.757 1.256-.879 1.758l.251.251h-.125s.125.126.125 0c.126.377.251.628.251.88 0 .627.377 1.255 1.13 1.13.501 0 .877-.503.877-1.005.126-.628.126-1.13 0-1.633-.25-.627-.878-1.255-1.63-1.38zm-7.025 1.758c-.126-.377-.252-.502-.628-.628-.502-.125-.878.251-.753.754 0 .125.126.376.126.502l.125.125c.125.126 0 0 0 0 .125.628 1.13.754 1.255 0v-.502c0-.125-.126-.125-.126-.25zm16.685 2.009c-.126 0-.251-.125-.502-.125-.502 0-.878.125-1.13.502-.125 0-.125-.126-.25-.126-.377-.125-.753-.125-1.13.126-.501.251-.627 1.004-.25 1.381.25.377.627.628 1.003.88.377.25 1.004.627 1.506.501.753-.125 1.254-.753 1.254-1.506 0-.377 0-.628-.125-.88.125-.376 0-.627-.376-.753z"/><path d="M372.613 228.119c-.753-.126-1.255.376-1.38 1.004-1.255.88-3.137 2.26-3.89.628-.627-1.256-1.003-2.26-2.007-3.39-1.254-1.381-2.634-2.26-3.512-4.018-.502-1.005-1.255-1.884-1.882-2.763-.251-3.14-1.631-6.404-3.764-8.539 0-.125-.125-.376-.125-.502 1.129 1.256 2.132 2.637 3.136 4.018 1.255 1.758 2.258 3.39 3.89 4.898 2.257 2.26 5.017 4.394 4.766 7.91 0 .503.251 1.13.879 1.256h.376c.627 0 1.255-.251 1.255-.879.501-4.646 2.634-8.915 3.387-13.561.25-1.884.125-4.019.125-5.902 0-2.26-2.383-3.767-2.509-6.153 0-.628-.376-1.004-.753-1.256 3.513-.125 3.137-7.408 3.137-9.417 0-2.386.376-5.023-.502-7.283-.878-2.511-2.885-4.646-3.89-7.157-2.634-6.279-5.52-11.93-9.66-17.329-7.777-10.296-18.566-18.207-29.48-25.114-5.27-3.39-11.04-6.278-16.937-8.413-6.65-2.385-12.922-4.52-20.073-5.148-.753 0-1.255.126-1.63.502-.377-.25-.628-.627-1.005-1.004-1.003-1.256-3.136.251-2.132 1.507.627.753 1.505 1.38 2.258 1.883.25.628.753 1.13 1.63 1.256h.252c1.38.879 3.638 2.511 3.638 3.516 0 2.888 4.39 3.767 6.649 4.771.753.377 4.39.754 4.015 1.633-.377.753-.126 1.883.501 2.386 1.13.878 2.133 1.13 3.513 1.255 1.13.126 2.133.377 3.011.628-.25 1.256-.25 3.014-.125 4.144.125 1.507.752 2.134 2.007 3.139-.251-.251 1.254 1.758.125.502a2.731 2.731 0 0 0-1.003-.628c-.628-.125-1.631-.125-2.76-.25.376-.126.752-.252 1.003-.503.878-1.005.502-2.637-.502-3.39-.376-.377-.878-.251-1.38 0-2.132 1.255-4.892-1.884-6.9-.88-1.881 1.005-4.265 1.884-4.767 4.144-.25 1.13-.376 2.135-.125 3.265.125 1.381.125 2.512-.753 3.516-.25.251-.627.754-.753 1.13-.376 1.758 1.004 5.4 2.51 6.53.752.502 1.63.25 2.132-.502.251-.503.753-2.01 1.631-1.884 1.004.126 2.51 1.884 2.384 2.888-.126.753.752 1.758 1.63 1.256.251-.126.377-.126.502-.251.753.25 1.38-.126 1.631-.88.251-.878.878-2.385.502-3.39-.753-1.883-3.638-1.883-3.262-4.395.126-.879.126-1.255-.125-2.134 0-.126-1.004-2.512-.753-2.512 2.51.754 1.506 3.516 2.133 5.274.878 2.386 4.767 2.01 6.398.754.125-.126 1.756-1.633 2.133-1.13.25.502 1.254.753.125 1.506-1.129.88-2.509 1.758-3.01 3.14-.126.502 0 1.004.501 1.38.627.378.126 1.005.502 1.633 1.38 2.26-2.258 2.386-3.638 2.26-1.004-.125-1.757.252-2.635.628-.25.126-2.258-.376-3.136-.879-.126-.25-.126-.628 0-1.004.125-1.005-1.13-1.507-1.882-.754-.627.628-.627 1.256-.376 1.884-.126 1.004 0 2.26 1.003 2.511.502.126.878.251 1.38.377-1.882.753-1.882 2.26-3.512 3.516-1.255.879-2.886.125-3.639 1.632-.627 1.381-3.01 1.256-4.14 2.386-.501.502-1.003 1.381-.376 2.01 1.882 1.38 3.764 2.134 4.642 4.52.878 2.26-6.524 1.758-7.151 1.883-.878.126-1.13.502-1.38 1.005-.126-.126-.251-.126-.627-.252-.251-.125-.628.126-.628.377-.376 1.758.126 3.265.628 4.897.376 1.256.501 2.26.25 3.642-.125.251 0 .879.251 1.13.628.753 1.631.753 2.51.879 1.129.125 2.258 1.883 3.512 2.135-.376 0-.878.125-1.38.753-1.129 1.381-.376 3.893-1.756 5.274-.251-.251-.627-.502-1.255-.628-.627-.126-1.129.251-1.38.753-1.38 2.512-.878 5.023-3.01 7.283-1.004 1.13-2.259 2.26-3.137 3.39-1.004 1.256-2.384 2.135-3.513 3.265-1.756 1.758-1.881 4.898-3.136 7.032-1.38 2.26 1.38 5.65-.502 7.409-.125 0-.25.125-.376.251s-.251.126-.377.251c-.878.754-.627 1.632 0 2.135-.501 1.004-.627 2.009-.627 3.265 0 .376.126.753.377.879 0 2.134.627 4.269 2.634 5.776 1.13.879 2.007 1.255 2.384 2.762.25 1.005.502 1.758 1.003 2.512 1.004 1.38 3.513 3.767 5.144 4.52 1.004.502 2.133.502 3.01 1.005 1.13.627 2.385 1.255 3.64 1.632 1.38.377 1.128.879 2.383.628 1.505-.251 2.885-.628 4.39-.754 1.255-.125 4.768.628 5.897-.502 1.004-1.004 2.133-1.758 3.387-2.386h.628c1.254.126 3.638-3.013 5.018-1.381.752 1.005 1.882.753 2.258 2.01.878 2.762 2.634 3.39 5.52 2.636 2.509-.628.25 2.511-.126 3.767-.501 1.758-.752 3.893-1.003 5.776-.251 1.758.878 3.516 1.63 5.023 1.004 1.883 1.506 3.767 2.384 5.65.879 1.884-.376 6.028-.752 8.162-.251 1.382-.502 2.889-1.38 4.144-.628 1.005-1.882 1.758-2.384 2.763-1.004 1.632-.878 3.139-.753 5.022.251 2.386.251 5.274-.752 7.535-.502 1.255-.753 2.51-.628 3.767 0 .25.251.627.502.879-.25.627-.376 1.13-.502 1.757-.627 2.386-1.129 5.525-1.003 8.037 0 .502.627 1.13 1.254 1.004 3.89-.879 7.151-2.385 9.786-5.273 1.129-1.13 2.132-2.26 3.889-2.512.627-.125 1.505 0 2.132-.251 2.259-.879 3.513-3.14 4.893-4.897 1.38-1.758 2.258-3.642 3.137-5.65 1.254-2.763 3.01-4.27 5.269-6.28 1.881-1.757 3.261-4.017 5.018-5.9 1.129-1.256 2.634-2.261 3.136-3.893 1.506-4.898 3.137-9.92 3.89-15.069.125-1.13.25-2.385.376-3.516.25-1.38 1.881-2.762 2.509-4.018a71.734 71.734 0 0 0 3.638-7.66c1.004-2.762 2.258-5.399 3.262-8.036 1.003-2.762 1.63-5.65 2.885-8.287.878-1.758.627-4.646.753-6.53-.126-1.758-.878-2.511-2.258-2.762zm-7.402-28.253c.878.125 1.756 0 2.509.251.627.251 1.13.628 1.756.753-.501 0-1.129.377-1.38.88-.627 1.004-.878 1.883-1.129 3.013-.125.377-.125.879-.125 1.381-1.506-1.883-2.51-4.269-3.137-6.655.377 0 .879.251 1.506.377zm-26.596-24.36c.752-.251 1.003-.754 1.003-1.382.251.628.753 1.13 1.506 1.633 1.63.753 2.885.879 3.889 2.511.878 1.256 1.38 2.386-.628 2.763-2.132.376-4.516.502-6.649 1.004h-.125c-1.255-1.507-1.631-2.762-1.38-4.897.125-1.004-.376-2.009-.376-3.014.752 1.005 1.505 1.884 2.76 1.382zm2.509 22.979c-1.882.627-5.27-.377-6.65 1.506-.627.88-.627 2.01-1.756 1.758-1.756-.502-3.889-1.632-5.394-2.636-1.506-.88-2.886-2.26-4.893-2.386-1.004-.126-.878-.503-1.631-1.13-.878-.754-1.13.627-.502-1.13 1.882-5.149-7.402-1.884-9.158-1.382-1.505.503-3.01.503-4.516.754-1.38.25-2.51.879-3.764 1.38-1.505.503-3.262.378-4.516 1.131-.502-.251-1.13-.628-1.631-.753h.502c1.505-.503 3.136-.88 4.641-1.382 1.004-.376 1.882-1.506 1.631-2.511-.376-2.26-.376-4.018 1.506-5.65 1.129-1.005 3.262-1.382 3.763-2.889v-.502c1.004-.879 2.635-1.256 3.764-1.13.878.126 1.38-.126 1.882-.502.878 1.38 1.63 2.762 3.513 3.139 2.007.502 3.763.502 5.018 2.386.502.753 1.003 1.507 1.63 2.26.502.628.628.753.628.753 0 .503.25 1.005.878.88.376-.126.753-.126 1.004-.503.125-.251.25-.502.125-.753-.627-1.13-1.254-2.386-1.882-3.516-.627-1.005-1.38-2.01-2.258-2.763-.627-.502-1.756-.502-2.509-.502l-1.129-1.13c-1.255-1.13-2.258-1.758-3.01-3.39 0 0 0-.126-.126-.126 1.63-.251 3.763.628 4.767 1.632 1.63 1.633 3.764 2.512 4.767 4.897.377.754.753 2.512 1.882 2.889.502.125 2.133.502 2.258.753.753.753 1.004 1.883 1.882 2.511 1.255 1.005 4.015 1.507 4.39-.628.126-1.004-.626-1.758-1.254-2.385-.25-.251-1.63-1.633-1.129-1.884.753-.251 1.631-.628 2.51-.753 0 .125.125.376.125.628.376 1.38-.377 3.767 1.63 4.394 2.51.754 5.144.628 7.653.503 4.391-.377 2.76 3.264 3.513 5.901 1.004 3.893-5.77 1.507-8.154 2.26z"/><path d="M314.653 183.919c.376-.126.376-.628.125-.88.126-.125.126-.376-.125-.502-.126 0-.251 0-.251-.125-.251 0-.377.125-.377.251s-.125.377-.125.502c-.125.251 0 .503.25.628 0 .126.252.126.503.126zm-63.606-57.887s-.125 0 0 0l-.125.125v.252c.125.25.376.376.627.502.251 0 .376.125.627.125.377 0 .628 0 1.004-.125.627-.251.627-1.005 0-1.381-.502-.252-1.004-.377-1.505-.252-.251 0-.377 0-.628.252l-.125.125v.126l.25.125s.252 0 .252.126c-.126-.126-.377-.126-.377 0zm2.509 2.511c.753.126 1.004-1.13.251-1.13-.752-.126-1.003 1.13-.25 1.13zm-5.269 12.934c0-.377-.125-.628-.25-1.005-.126-.502-.377-.753-.753-1.004-.126-.252-.628-.377-.879-.126-.501 0-1.129.377-1.505.879-.125 0-.376-.126-.502 0-.627.126-1.254.502-1.254 1.256-.126 1.255 1.254 2.511 2.132 3.39.879 1.005 2.259.628 2.886-.251.25.125.627.125.878 0 .376 0 .753-.251.753-.628.376-1.13-.628-1.758-1.506-2.511zm10.915-10.548c-.251.377 0 .879.376 1.13.502.251 1.13.251 1.506 0 .125-.125.376-.251.501-.377.126-.125.126-.25.251-.376.126-.377-.125-1.005-.627-.88-.376 0-.627.126-.878.252h-.126c-.25-.377-.752-.126-1.003.251zm-.126-3.139c-.878-.126-1.003 1.13-.25 1.255.878.126 1.129-1.13.25-1.255zm-1.129 2.762c.502 0 .502-.753 0-.879h-.627c0-.125-.125-.25-.125-.376s-.251-.252-.377 0c-.125.25-.376.753-.125 1.004.25.377.752.377 1.254.251z"/><path d="M258.324 127.915c.376 0 .627-.25.878-.502-.126.126.125 0 .125-.126h.376a.631.631 0 0 0 0-1.255c-.376-.126-.752-.126-1.254 0-.125 0-.25.125-.376.125-.377.126-.502.377-.628.754-.125.628.377 1.004.879 1.004zm22.958 14.692c1.505-.88 4.516-.88 4.014-3.39-.125-.754-.878-.88-1.63-1.256.627.25 2.383-1.005 2.509-1.507v-.126c.878.503 1.881.754 2.885 1.13.125.126.376.126.502.126 1.003.251 1.63-1.381.502-1.758-.251-.125-.377-.125-.628-.251-.125 0-.125-.126-.25-.126.125-.125.125-.25.25-.376.377-.88-.627-1.382-1.38-1.005-.125.126-.25.126-.376.126-.125 0-.125 0-.25-.126-.252-.251-.754-.125-1.005.126h-.25c0-.126-.126-.377-.126-.503-.502-1.13-2.007-1.13-1.505-2.51.125-.503 0-.88-.251-1.131-.878-.879-2.384-.753-3.638-.753-.628 0-1.255.25-1.757.502-.376.125-.376-.88-.753-1.256-1.63-1.381-3.889-1.13-6.021-1.256-2.51-.125-5.019-1.13-7.151.126-1.13.628-1.004 2.135-.377 2.888.251.377.753.628 1.13.754.376.125.752.125 1.254.25 1.255.126 0 .252-.502.629-1.756 1.38-2.133 1.883-2.258 4.143-.125 1.507-1.38 2.512-2.007 3.767-1.506 1.256-2.008 3.516-3.137 5.023-.752.879-2.258 5.148-1.003 6.153 1.882 1.632 3.889-1.256 5.143-2.26 3.388-3.014 7.026-4.772 11.668-3.642.878.251 1.756-.502 2.383-.879 1.13-1.004 2.76-.879 4.015-1.632zm-90.327 61.905c1.003.251 2.007-1.005 1.003-1.632-.125 0-.125-.126-.25-.126-.126 0-.126 0-.252-.126-.25-.25-.501-.376-.752-.627-.251-.252-.377-.503-.502-.754 0-.125-.126-.251-.126-.377-.501-1.004-.878-2.26-1.003-3.013 0-.251-.126-.502-.251-.754 0-.125-.126-.25-.126-.376-.501-1.633-1.63-3.14-3.638-3.265-1.003 0-1.63 1.004-.753 1.632.502.377.879.88 1.38 1.382.377.502 1.13.879 1.38 1.38.126.126.126.378.251.629.126.376.126.753.251 1.004.251.88.251 1.884.753 2.637l.25.251c.126.251.252.503.503.88.376.376.878.502 1.254.627.126.502.377.628.628.628z"/><path d="M249.542 130.301c-1.004 0-2.384-.125-3.638-.125 1.003-.126 1.881-.252 2.634-1.005.753-1.005.377-2.511-.627-3.014-.878-.502-3.764-.627-1.756-2.511.878-.753 1.505-1.381 2.132-2.26.377-.502 0-1.381-.627-1.633-4.642-1.883-9.785.377-13.8 2.637-6.398 3.642-67.244 25.114-61.347 60.399-.878 1.255-1.882 2.637-2.133 4.143-.125.503-.125 1.005-.25 1.633-.126.376-.377.628-.503 1.004-.25 1.382-.376 2.637-.502 4.019-.25 2.134.628 4.143 1.13 6.152.752 2.637 1.129 5.4 1.756 8.162.627 2.637.753 6.655 2.509 9.167v.125c.627 1.884 1.13 3.767 1.756 5.776.377 1.382 1.757 2.512 3.262 2.637.878.126 1.38.126 2.258.503a8.761 8.761 0 0 0-.752 2.134c-.628 2.763-1.506 4.395-3.388 6.404-1.756 2.01-.627 4.772-1.38 7.032-.752 2.386-1.881 4.144-1.881 6.655 0 2.01 1.63 4.772 2.76 6.53 1.38 2.134 3.136 3.892 4.516 6.027 1.129 1.884 1.38 3.014 1.129 5.023-.125 1.004 0 1.758.25 2.637.377 1.13 1.13 2.26 1.506 3.39.377 1.256.628 2.511 1.255 3.767.376.754 1.004 1.507 1.505 2.26 1.13 1.633 1.255 3.516 1.631 5.4 1.004 5.022 1.38 10.422 3.011 15.32.753 2.26 2.007 4.394 3.011 6.654s1.882 4.144 4.015 5.525c2.132 1.381 4.641 2.135 6.649 3.642 2.007 1.506 3.638 3.641 5.52 5.274.627.502 1.129 1.13 1.63 1.883.377.879.879 1.632 1.255 2.511.126.377.377.754.627 1.13.251.628.502 1.256.628 1.884.627 2.26 3.387 4.27 4.642 6.153.25.377.752.628 1.129.628 1.505 1.632 3.01 3.264 4.516 5.022.753.88 2.133-.125 1.505-1.004-2.76-4.52-5.645-9.167-8.656-13.561-1.38-2.01-2.885-4.144-3.387-6.53-.251-1.005.125-2.26.125-3.265 0-1.004-.752-1.883-1.129-2.637-.502-1.13-1.254-1.758-1.38-3.013-.25-2.01 1.255-.503 2.007.125 1.506 1.005 2.886.88 4.391 0 1.38-.753 2.133-2.511 2.76-3.767.377-.753.628-1.507 1.004-2.26.502-1.13.125-2.386.753-3.516.25-.377.25-.628.125-.879.126 0 .251-.126.502-.126.878-.25 1.38-.878 2.384-1.004.376 0 1.129.126 1.505 0 1.38-.628 2.384-1.381 3.387-2.386 1.38-1.381 4.517.251 6.273-.125 2.635-.628 4.642-3.014 5.27-5.4.376-1.507-.377-3.39-.628-4.897-.376-2.135 1.63-5.776 3.387-7.283 1.882-1.758 4.266-3.516 4.14-6.404-.125-3.014-2.133-5.776-5.018-7.157-2.007-1.005-4.767-1.005-6.273-2.637-1.003-1.005-1.756-2.01-3.01-2.888-1.506-.88-3.262-.754-4.893-1.507-1.757-.88-3.011-2.26-4.768-3.14-1.38-.627-2.885-.878-4.265-1.255-2.635-.753-2.133-2.888-2.007-5.023.25-3.139-1.004-4.897-3.639-6.78-1.254-.88-2.383-2.01-3.638-2.763-1.38-.879-3.262-.502-4.39-1.883-1.004-1.256-1.882-2.386-2.886-3.516-1.506-1.507-2.133-3.767-3.136-5.65-1.13-2.136-2.635-3.266-5.144-2.638-1.255.251-2.635.502-3.136-.879-.251-.502-.377-.879-.628-1.381-.502-.88-1.38-1.758-2.509-2.01-2.634-.501-5.394 1.508-7.276 3.893l-.126-.125c-1.254-.754-3.387-.502-4.14-1.758-.752-1.381-1.63-6.153-.878-7.283 1.631-2.26 6.65-6.78 3.638-9.669-.627-.628-5.143-2.637-3.261-3.892 1.38-.88 2.76-1.256 3.638-2.888.25-.503 0-1.13-.377-1.507-2.132-1.758-4.265-1.005-6.523-.126-.251-1.004-.377-1.883-.251-2.888.125-1.632 1.756-2.888 3.01-4.018 1.004-.88 1.632-1.884 2.259-3.14.878-1.506 2.007-2.385 3.136-3.766 1.506-1.758 3.638-3.642 5.771-1.256 1.004 1.004 2.51-.251 3.011 1.758-1.38 2.637-1.38 5.902-3.387 8.287-.878 1.13.753 2.386 1.756 1.382 1.255-1.382 3.262-2.763 3.638-4.772.251-1.507.377-3.014.251-4.52.878-1.13 2.886-1.256 4.266-1.633 1.505-.376 2.885-1.381 4.14-2.26 2.76-2.135 5.143-4.52 8.154-6.404 2.258-1.381 3.388-1.758 6.148-1.13 1.254.251 2.383.251 3.638-.126 1.63-.502 2.634-1.632 4.39-2.009 1.757-.376 2.51.88 4.015 1.381 1.631.628 3.011-1.632 3.764-2.51.753-1.005 1.505-3.015.125-3.893-.878-.628-1.882-.754-2.885-1.13-.377-.126-3.513-.503-1.38-2.01.502-.376.753-.628 1.129-1.004.376-.503.376-1.005 0-1.507-.878-1.381-2.133-1.381.502-1.13 1.505.125 2.76 1.632 4.14 1.632 1.505.126 3.01-.125 3.638 1.633.25.879.627 1.632 1.129 2.385.627 1.005 2.007 1.507 3.136 1.13 1.506-.502 1.757-1.883 1.757-3.264 0-1.507 0-3.39-.628-4.772-.627-1.507-.878-1.883.753-3.139.753-.628 1.757-1.381 2.258-2.26.753-1.382 1.13-3.642-.627-4.52-1.38-.629-2.76-.377-4.14.125.251-2.135 2.258-4.772-.376-5.902-3.513-1.507-6.9 3.39-8.908 5.023-2.509 2.009-5.018 4.27-7.778 6.027-.627.377-1.254.628-1.882 1.005-.627.25-1.505.753-1.129-.126.502-1.256 1.631-2.511 2.008-3.767.752-2.637 5.269-3.893 3.261-7.032-1.63-2.637 2.133-2.134 3.513-2.134 2.133 0 3.638-1.13 5.52-1.633 1.882-.628 3.137-.753 4.642.377 1.255.879 2.635.251 3.89-.126 2.006-.628 3.512-1.758 5.52-2.637.5-.125 1.128-.376 1.63-.502 1.004-.502 1.13-.377.502.502-.126 1.13-1.255 2.01-2.007 2.888-.502.754-.126 1.758.752 1.884 3.638.628 6.398-3.767 6.65-6.78-.502-3.893-5.395-3.893-8.155-4.019zm-70.13 44.2c-.125.126-.25.251-.25.377 0-.126.125-.126.125-.251.251-.754.753-1.507 1.13-2.26-.377.753-.628 1.506-1.004 2.134zm109.021-28.881c-.878 0-1.757.252-2.51.628-.376.126-.878 0-1.254 0-.878 0-2.384-.125-2.885.628-.377.502-.251 1.005 0 1.381.627 1.13 2.509.754 3.638 1.005 1.254.251 3.01.628 4.014-.377.251-.25.251-.753 0-1.13l-.376-.377c.878-.25.502-1.758-.627-1.758z"/><path d="M191.33 209.284c1.255.25 2.51 1.255 3.765.753.125.377.501.753 1.129.628h.25c.628.753 1.38 1.13 2.51.753 1.003-.377 1.003-1.632.501-2.386-.752-.879-1.881-1.004-2.634-1.883-.126-.377-.376-.754-.753-1.13-.502-.503-1.003-.251-1.38.125-.878-.25-1.505.628-1.003 1.382.125.25.627.502.501.627-.376-.125-.627-.125-1.003-.25-.502-.126-1.004-.377-1.506-.377-1.003 0-1.505 1.506-.376 1.758zm-3.512-1.005c.126 0 .126.377.251.377.126 0 .126-.126.251 0 .25.25.627 0 .878-.251.753-1.005-.376-1.758-1.254-1.758h-.126c-.376-.126-.753.25-.502.502v.125c-.125.503.126 1.005.502 1.005zm14.804 5.148c.753.126 1.38-.628 1.129-1.255 0 0 0-.126-.126-.126-.25-.753-1.254-.753-1.63-.126h-.126c-.25 0-.376.377-.125.503 0 .376.376 1.004.878 1.004z"/></g></g></svg>